<svg xmlns="http://www.w3.org/2000/svg" viewBox="0 0 800 450" preserveAspectRatio="xMidYMid slice">
  <defs>
    <linearGradient id="bg" x1="0" y1="0" x2="1" y2="1">
      <stop offset="0" stop-color="#0C4A6E"/><stop offset=".55" stop-color="#0284C7"/><stop offset="1" stop-color="#7DD3FC"/>
    </linearGradient>
    <radialGradient id="sheen" cx=".2" cy=".05" r=".9">
      <stop offset="0" stop-color="#FFFFFF" stop-opacity=".22"/><stop offset=".5" stop-color="#FFFFFF" stop-opacity="0"/>
    </radialGradient>
    <pattern id="dots" width="26" height="26" patternUnits="userSpaceOnUse">
      <circle cx="2" cy="2" r="1.3" fill="#FFFFFF" opacity=".13"/>
    </pattern>
    <filter id="soft" x="-40%" y="-40%" width="180%" height="180%">
      <feGaussianBlur stdDeviation="12"/>
    </filter>
  </defs>
  <rect width="800" height="450" fill="url(#bg)"/>
  <rect width="800" height="450" fill="url(#sheen)"/>
  <rect width="800" height="450" fill="url(#dots)"/>
  <circle cx="735" cy="55" r="120" fill="#FFFFFF" opacity=".07"/>
  <circle cx="60" cy="400" r="95" fill="#FFFFFF" opacity=".07"/>

  <circle cx="620" cy="120" r="40" fill="#FFF7D6" opacity=".95"/>
  <path d="M120,330 Q400,290 690,330 L690,450 L120,450 Z" fill="#16A34A" opacity=".85"/>
  <g>
    <rect x="290" y="180" width="230" height="126" rx="10" fill="#FFFFFF"/>
    <path d="M270,180 L405,120 L540,180 Z" fill="#C8393F"/>
    <rect x="385" y="240" width="44" height="66" rx="6" fill="#C8393F"/>
    <g fill="#0284C7" opacity=".85">
      <rect x="312" y="200" width="20" height="20" rx="4"/><rect x="344" y="200" width="20" height="20" rx="4"/>
      <rect x="450" y="200" width="20" height="20" rx="4"/><rect x="482" y="200" width="20" height="20" rx="4"/>
      <rect x="312" y="240" width="20" height="20" rx="4"/><rect x="344" y="240" width="20" height="20" rx="4"/>
      <rect x="450" y="240" width="20" height="20" rx="4"/><rect x="482" y="240" width="20" height="20" rx="4"/>
    </g>
  </g>
  <g>
    <rect x="576" y="196" width="6" height="112" rx="3" fill="#FFFFFF"/>
    <path d="M582,198 h54 l-12,14 12,14 h-54 z" fill="#C8393F"/>
  </g>
  <g>
    <circle cx="216" cy="250" r="34" fill="#15803D"/><rect x="211" y="272" width="10" height="36" rx="5" fill="#7C4A1E"/>
    <circle cx="672" cy="266" r="28" fill="#15803D"/><rect x="668" y="284" width="9" height="30" rx="4.5" fill="#7C4A1E"/>
  </g>
<path d="M240,131 L242.52,137.48 L249,140 L242.52,142.52 L240,149 L237.48,142.52 L231,140 L237.48,137.48 Z" fill="#FFFFFF" opacity=".7"/>
  <g opacity=".9">
    <rect x="42" y="386" width="26" height="5" rx="2.5" fill="#FFFFFF" opacity=".85"/>
    <text x="42" y="416" font-family="Segoe UI, Arial, sans-serif" font-size="14" font-weight="700"
      letter-spacing="4.5" fill="#FFFFFF" fill-opacity=".7">ĐẠI HỌC DUY TÂN</text>
  </g>
</svg>
