<svg xmlns="http://www.w3.org/2000/svg" viewBox="0 0 800 450" preserveAspectRatio="xMidYMid slice">
  <defs>
    <linearGradient id="bg" x1="0" y1="0" x2="1" y2="1">
      <stop offset="0" stop-color="#272A7E"/><stop offset=".55" stop-color="#4F46E5"/><stop offset="1" stop-color="#0EA5E9"/>
    </linearGradient>
    <radialGradient id="sheen" cx=".2" cy=".05" r=".9">
      <stop offset="0" stop-color="#FFFFFF" stop-opacity=".22"/><stop offset=".5" stop-color="#FFFFFF" stop-opacity="0"/>
    </radialGradient>
    <pattern id="dots" width="26" height="26" patternUnits="userSpaceOnUse">
      <circle cx="2" cy="2" r="1.3" fill="#FFFFFF" opacity=".13"/>
    </pattern>
    <filter id="soft" x="-40%" y="-40%" width="180%" height="180%">
      <feGaussianBlur stdDeviation="12"/>
    </filter>
  </defs>
  <rect width="800" height="450" fill="url(#bg)"/>
  <rect width="800" height="450" fill="url(#sheen)"/>
  <rect width="800" height="450" fill="url(#dots)"/>
  <circle cx="735" cy="55" r="120" fill="#FFFFFF" opacity=".07"/>
  <circle cx="60" cy="400" r="95" fill="#FFFFFF" opacity=".07"/>

  <g transform="translate(455,225) rotate(6)">
    <rect x="-95" y="-61" width="190" height="150" rx="14" fill="#0B0A14" opacity=".28" filter="url(#soft)"/>
    <rect x="-95" y="-75" width="190" height="150" rx="14" fill="#12172E"/>
    <rect x="-95" y="-75" width="190" height="28" rx="14" fill="#1D2440"/>
    <circle cx="-78" cy="-61" r="4" fill="#F87171"/><circle cx="-64" cy="-61" r="4" fill="#FBBF24"/><circle cx="-50" cy="-61" r="4" fill="#34D399"/>
    <rect x="-78" y="-32" width="70" height="9" rx="4.5" fill="#34D399"/>
    <rect x="-78" y="-12" width="110" height="9" rx="4.5" fill="#38BDF8" opacity=".9"/>
    <rect x="-62" y="8" width="88" height="9" rx="4.5" fill="#818CF8"/>
    <rect x="-62" y="28" width="56" height="9" rx="4.5" fill="#F472B6" opacity=".9"/>
    <rect x="-78" y="48" width="40" height="9" rx="4.5" fill="#475569"/>
  </g>
  <g transform="translate(330,205) rotate(-7)">
    <rect x="-105" y="-66" width="210" height="165" rx="18" fill="#0B0A14" opacity=".28" filter="url(#soft)"/>
    <rect x="-105" y="-80" width="210" height="165" rx="18" fill="#FFFFFF"/>
    <rect x="-105" y="-80" width="210" height="34" rx="18" fill="#EEF1FB"/>
    <circle cx="-86" cy="-63" r="4.5" fill="#F87171"/><circle cx="-70" cy="-63" r="4.5" fill="#FBBF24"/><circle cx="-54" cy="-63" r="4.5" fill="#34D399"/>
    <rect x="-85" y="-30" width="52" height="11" rx="5.5" fill="#4F46E5"/>
    <rect x="-25" y="-30" width="95" height="11" rx="5.5" fill="#E2E8F0"/>
    <rect x="-67" y="-7" width="120" height="11" rx="5.5" fill="#0EA5E9"/>
    <rect x="-67" y="16" width="76" height="11" rx="5.5" fill="#E2E8F0"/>
    <rect x="-67" y="39" width="98" height="11" rx="5.5" fill="#F59E0B"/>
    <rect x="-85" y="62" width="44" height="11" rx="5.5" fill="#CBD5E1"/>
  </g>
  <path d="M212,119 L215.08,126.92 L223,130 L215.08,133.08 L212,141 L208.92,133.08 L201,130 L208.92,126.92 Z" fill="#FFFFFF" opacity=".85"/><path d="M600,110 L602.24,115.76 L608,118 L602.24,120.24 L600,126 L597.76,120.24 L592,118 L597.76,115.76 Z" fill="#FFFFFF" opacity=".7"/><path d="M575,318 L578.36,326.64 L587,330 L578.36,333.36 L575,342 L571.64,333.36 L563,330 L571.64,326.64 Z" fill="#FFFFFF" opacity=".85"/>

  <g opacity=".9">
    <rect x="42" y="386" width="26" height="5" rx="2.5" fill="#FFFFFF" opacity=".85"/>
    <text x="42" y="416" font-family="Segoe UI, Arial, sans-serif" font-size="14" font-weight="700"
      letter-spacing="4.5" fill="#FFFFFF" fill-opacity=".7">ĐẠI HỌC DUY TÂN</text>
  </g>
</svg>
