<svg xmlns="http://www.w3.org/2000/svg" viewBox="0 0 800 450" preserveAspectRatio="xMidYMid slice">
  <defs>
    <linearGradient id="bg" x1="0" y1="0" x2="1" y2="1">
      <stop offset="0" stop-color="#92400E"/><stop offset=".55" stop-color="#D97706"/><stop offset="1" stop-color="#FCD34D"/>
    </linearGradient>
    <radialGradient id="sheen" cx=".2" cy=".05" r=".9">
      <stop offset="0" stop-color="#FFFFFF" stop-opacity=".22"/><stop offset=".5" stop-color="#FFFFFF" stop-opacity="0"/>
    </radialGradient>
    <pattern id="dots" width="26" height="26" patternUnits="userSpaceOnUse">
      <circle cx="2" cy="2" r="1.3" fill="#FFFFFF" opacity=".13"/>
    </pattern>
    <filter id="soft" x="-40%" y="-40%" width="180%" height="180%">
      <feGaussianBlur stdDeviation="12"/>
    </filter>
  </defs>
  <rect width="800" height="450" fill="url(#bg)"/>
  <rect width="800" height="450" fill="url(#sheen)"/>
  <rect width="800" height="450" fill="url(#dots)"/>
  <circle cx="735" cy="55" r="120" fill="#FFFFFF" opacity=".07"/>
  <circle cx="60" cy="400" r="95" fill="#FFFFFF" opacity=".07"/>

  <g transform="translate(420,215)">
    <path d="M-30,20 L-56,105 L0,74 L56,105 L30,20" fill="#C8393F"/>
    <path d="M-30,20 L-43,62 L0,44 L43,62 L30,20" fill="#A32B31"/>
    <rect x="-62" y="-70" width="124" height="124" rx="62" fill="#0B0A14" opacity=".28" filter="url(#soft)"/>
    <circle cx="0" cy="-22" r="62" fill="#FFFFFF"/>
    <circle cx="0" cy="-22" r="47" fill="none" stroke="#F59E0B" stroke-width="5" opacity=".7"/>
    <path d="M0,-56 l10,20 22,3 -16,16 4,22 -20,-10 -20,10 4,-22 -16,-16 22,-3 z" fill="#F59E0B"/>
  </g>
  <g transform="translate(590,296)">
    <circle cx="0" cy="10" r="26" fill="#B45309"/>
    <circle cx="0" cy="0" r="26" fill="#FDE68A"/>
    <text x="0" y="8" text-anchor="middle" font-family="Segoe UI, Arial" font-size="20" font-weight="800" fill="#B45309">₫</text>
  </g>
  <g transform="translate(258,150)">
    <circle cx="0" cy="8" r="20" fill="#B45309"/>
    <circle cx="0" cy="0" r="20" fill="#FDE68A"/>
  </g>
  <path d="M620,129 L623.08,136.92 L631,140 L623.08,143.08 L620,151 L616.92,143.08 L609,140 L616.92,136.92 Z" fill="#FFFFFF" opacity=".85"/><path d="M232,291 L234.52,297.48 L241,300 L234.52,302.52 L232,309 L229.48,302.52 L223,300 L229.48,297.48 Z" fill="#FFFFFF" opacity=".75"/>

  <g opacity=".9">
    <rect x="42" y="386" width="26" height="5" rx="2.5" fill="#FFFFFF" opacity=".85"/>
    <text x="42" y="416" font-family="Segoe UI, Arial, sans-serif" font-size="14" font-weight="700"
      letter-spacing="4.5" fill="#FFFFFF" fill-opacity=".7">ĐẠI HỌC DUY TÂN</text>
  </g>
</svg>
