<svg xmlns="http://www.w3.org/2000/svg" viewBox="0 0 800 450" preserveAspectRatio="xMidYMid slice">
  <defs>
    <linearGradient id="bg" x1="0" y1="0" x2="1" y2="1">
      <stop offset="0" stop-color="#1E3A8A"/><stop offset=".55" stop-color="#3B82F6"/><stop offset="1" stop-color="#9CC7FD"/>
    </linearGradient>
    <radialGradient id="sheen" cx=".2" cy=".05" r=".9">
      <stop offset="0" stop-color="#FFFFFF" stop-opacity=".22"/><stop offset=".5" stop-color="#FFFFFF" stop-opacity="0"/>
    </radialGradient>
    <pattern id="dots" width="26" height="26" patternUnits="userSpaceOnUse">
      <circle cx="2" cy="2" r="1.3" fill="#FFFFFF" opacity=".13"/>
    </pattern>
    <filter id="soft" x="-40%" y="-40%" width="180%" height="180%">
      <feGaussianBlur stdDeviation="12"/>
    </filter>
  </defs>
  <rect width="800" height="450" fill="url(#bg)"/>
  <rect width="800" height="450" fill="url(#sheen)"/>
  <rect width="800" height="450" fill="url(#dots)"/>
  <circle cx="735" cy="55" r="120" fill="#FFFFFF" opacity=".07"/>
  <circle cx="60" cy="400" r="95" fill="#FFFFFF" opacity=".07"/>

  <circle cx="560" cy="140" r="46" fill="#FFF7D6" opacity=".95"/>
  <g>
    <rect x="252" y="308" width="420" height="14" rx="7" fill="#FFFFFF" opacity=".55"/>
    <rect x="272" y="172" width="86" height="138" rx="8" fill="#FFFFFF"/>
    <rect x="380" y="120" width="104" height="190" rx="8" fill="#EAF1FF"/>
    <rect x="506" y="205" width="80" height="105" rx="8" fill="#FFFFFF"/>
    <g fill="#3B82F6" opacity=".85">
      <rect x="286" y="188" width="14" height="14" rx="3"/><rect x="308" y="188" width="14" height="14" rx="3"/><rect x="330" y="188" width="14" height="14" rx="3"/>
      <rect x="286" y="212" width="14" height="14" rx="3"/><rect x="308" y="212" width="14" height="14" rx="3"/><rect x="330" y="212" width="14" height="14" rx="3"/>
      <rect x="286" y="236" width="14" height="14" rx="3"/><rect x="330" y="236" width="14" height="14" rx="3"/>
      <rect x="286" y="260" width="14" height="14" rx="3"/><rect x="308" y="260" width="14" height="14" rx="3"/>
    </g>
    <g fill="#1E3A8A" opacity=".8">
      <rect x="396" y="138" width="16" height="16" rx="3"/><rect x="422" y="138" width="16" height="16" rx="3"/><rect x="448" y="138" width="16" height="16" rx="3"/>
      <rect x="396" y="166" width="16" height="16" rx="3"/><rect x="448" y="166" width="16" height="16" rx="3"/>
      <rect x="396" y="194" width="16" height="16" rx="3"/><rect x="422" y="194" width="16" height="16" rx="3"/>
      <rect x="422" y="222" width="16" height="16" rx="3"/><rect x="448" y="222" width="16" height="16" rx="3"/>
      <rect x="396" y="250" width="16" height="16" rx="3"/><rect x="448" y="250" width="16" height="16" rx="3"/>
    </g>
    <g fill="#3B82F6" opacity=".75">
      <rect x="520" y="222" width="13" height="13" rx="3"/><rect x="541" y="222" width="13" height="13" rx="3"/><rect x="562" y="222" width="13" height="13" rx="3"/>
      <rect x="520" y="245" width="13" height="13" rx="3"/><rect x="562" y="245" width="13" height="13" rx="3"/>
      <rect x="520" y="268" width="13" height="13" rx="3"/><rect x="541" y="268" width="13" height="13" rx="3"/>
    </g>
  </g>
<path d="M650,185 L652.8,192.2 L660,195 L652.8,197.8 L650,205 L647.2,197.8 L640,195 L647.2,192.2 Z" fill="#FFFFFF" opacity=".85"/><path d="M235,131 L237.52,137.48 L244,140 L237.52,142.52 L235,149 L232.48,142.52 L226,140 L232.48,137.48 Z" fill="#FFFFFF" opacity=".7"/>
  <g opacity=".9">
    <rect x="42" y="386" width="26" height="5" rx="2.5" fill="#FFFFFF" opacity=".85"/>
    <text x="42" y="416" font-family="Segoe UI, Arial, sans-serif" font-size="14" font-weight="700"
      letter-spacing="4.5" fill="#FFFFFF" fill-opacity=".7">ĐẠI HỌC DUY TÂN</text>
  </g>
</svg>
