<svg xmlns="http://www.w3.org/2000/svg" viewBox="0 0 800 450" preserveAspectRatio="xMidYMid slice">
  <defs>
    <linearGradient id="bg" x1="0" y1="0" x2="1" y2="1">
      <stop offset="0" stop-color="#7C3E0A"/><stop offset=".55" stop-color="#EA9E0C"/><stop offset="1" stop-color="#FCD34D"/>
    </linearGradient>
    <radialGradient id="sheen" cx=".2" cy=".05" r=".9">
      <stop offset="0" stop-color="#FFFFFF" stop-opacity=".22"/><stop offset=".5" stop-color="#FFFFFF" stop-opacity="0"/>
    </radialGradient>
    <pattern id="dots" width="26" height="26" patternUnits="userSpaceOnUse">
      <circle cx="2" cy="2" r="1.3" fill="#FFFFFF" opacity=".13"/>
    </pattern>
    <filter id="soft" x="-40%" y="-40%" width="180%" height="180%">
      <feGaussianBlur stdDeviation="12"/>
    </filter>
  </defs>
  <rect width="800" height="450" fill="url(#bg)"/>
  <rect width="800" height="450" fill="url(#sheen)"/>
  <rect width="800" height="450" fill="url(#dots)"/>
  <circle cx="735" cy="55" r="120" fill="#FFFFFF" opacity=".07"/>
  <circle cx="60" cy="400" r="95" fill="#FFFFFF" opacity=".07"/>

  <g transform="translate(415,222) rotate(-4)">
    <rect x="-120" y="-74" width="240" height="176" rx="18" fill="#0B0A14" opacity=".28" filter="url(#soft)"/>
    <rect x="-120" y="-88" width="240" height="176" rx="18" fill="#FFFFFF"/>
    <rect x="-98" y="24" width="34" height="42" rx="8" fill="#FDE68A"/>
    <rect x="-52" y="-2" width="34" height="68" rx="8" fill="#F59E0B"/>
    <rect x="-6" y="-28" width="34" height="94" rx="8" fill="#EA580C"/>
    <rect x="40" y="-54" width="34" height="120" rx="8" fill="#B45309"/>
    <path d="M-95,-38 L-40,-52 L5,-58 L62,-74" stroke="#16A34A" stroke-width="7" fill="none" stroke-linecap="round"/>
    <path d="M42,-76 H64 V-56" stroke="#16A34A" stroke-width="7" fill="none" stroke-linecap="round" stroke-linejoin="round"/>
  </g>
  <g transform="translate(590,300)">
    <circle cx="0" cy="26" r="30" fill="#B45309"/>
    <circle cx="0" cy="14" r="30" fill="#FBBF24"/>
    <circle cx="0" cy="14" r="21" fill="none" stroke="#B45309" stroke-width="3" opacity=".55"/>
    <text x="0" y="22" text-anchor="middle" font-family="Segoe UI, Arial" font-size="22" font-weight="800" fill="#7C3E0A">₫</text>
  </g>
  <g transform="translate(255,140)">
    <circle cx="0" cy="10" r="24" fill="#FBBF24"/>
    <circle cx="0" cy="0" r="24" fill="#FDE68A"/>
    <text x="0" y="8" text-anchor="middle" font-family="Segoe UI, Arial" font-size="19" font-weight="800" fill="#B45309">₫</text>
  </g>
  <path d="M630,130 L632.8,137.2 L640,140 L632.8,142.8 L630,150 L627.2,142.8 L620,140 L627.2,137.2 Z" fill="#FFFFFF" opacity=".85"/><path d="M220,311 L222.52,317.48 L229,320 L222.52,322.52 L220,329 L217.48,322.52 L211,320 L217.48,317.48 Z" fill="#FFFFFF" opacity=".7"/>

  <g opacity=".9">
    <rect x="42" y="386" width="26" height="5" rx="2.5" fill="#FFFFFF" opacity=".85"/>
    <text x="42" y="416" font-family="Segoe UI, Arial, sans-serif" font-size="14" font-weight="700"
      letter-spacing="4.5" fill="#FFFFFF" fill-opacity=".7">ĐẠI HỌC DUY TÂN</text>
  </g>
</svg>
