<svg xmlns="http://www.w3.org/2000/svg" viewBox="0 0 800 450" preserveAspectRatio="xMidYMid slice">
  <defs>
    <linearGradient id="bg" x1="0" y1="0" x2="1" y2="1">
      <stop offset="0" stop-color="#4C1D95"/><stop offset=".55" stop-color="#8B5CF6"/><stop offset="1" stop-color="#D8B4FE"/>
    </linearGradient>
    <radialGradient id="sheen" cx=".2" cy=".05" r=".9">
      <stop offset="0" stop-color="#FFFFFF" stop-opacity=".22"/><stop offset=".5" stop-color="#FFFFFF" stop-opacity="0"/>
    </radialGradient>
    <pattern id="dots" width="26" height="26" patternUnits="userSpaceOnUse">
      <circle cx="2" cy="2" r="1.3" fill="#FFFFFF" opacity=".13"/>
    </pattern>
    <filter id="soft" x="-40%" y="-40%" width="180%" height="180%">
      <feGaussianBlur stdDeviation="12"/>
    </filter>
  </defs>
  <rect width="800" height="450" fill="url(#bg)"/>
  <rect width="800" height="450" fill="url(#sheen)"/>
  <rect width="800" height="450" fill="url(#dots)"/>
  <circle cx="735" cy="55" r="120" fill="#FFFFFF" opacity=".07"/>
  <circle cx="60" cy="400" r="95" fill="#FFFFFF" opacity=".07"/>

  <g transform="translate(345,200) rotate(-4)">
    <rect x="-95" y="-48" width="190" height="124" rx="26" fill="#0B0A14" opacity=".28" filter="url(#soft)"/>
    <path d="M-95,-62 h190 a26,26 0 0 1 26,26 v72 a26,26 0 0 1 -26,26 h-118 l-34,34 v-34 h-38 a26,26 0 0 1 -26,-26 v-72 a26,26 0 0 1 26,-26 z"
      fill="#FFFFFF" transform="translate(-26,0)"/>
    <text x="-22" y="18" text-anchor="middle" font-family="Segoe UI, Arial" font-size="52" font-weight="800" fill="#7C3AED">Aa</text>
  </g>
  <g transform="translate(545,262) rotate(5)">
    <rect x="-70" y="-38" width="140" height="104" rx="24" fill="#0B0A14" opacity=".28" filter="url(#soft)"/>
    <path d="M-70,-52 h140 a24,24 0 0 1 24,24 v56 a24,24 0 0 1 -24,24 h-24 v30 l-32,-30 h-84 a24,24 0 0 1 -24,-24 v-56 a24,24 0 0 1 24,-24 z"
      fill="#2E1065" transform="translate(24,0)"/>
    <text x="24" y="16" text-anchor="middle" font-family="Segoe UI, Arial" font-size="42" font-weight="700" fill="#FFFFFF">文</text>
  </g>
  <g transform="translate(568,128) rotate(8)">
    <rect x="-34" y="-24" width="68" height="48" rx="14" fill="#FFFFFF" opacity=".92"/>
    <text x="0" y="10" text-anchor="middle" font-family="Segoe UI, Arial" font-size="26" font-weight="700" fill="#7C3AED">한</text>
  </g>
  <path d="M238,290 L240.8,297.2 L248,300 L240.8,302.8 L238,310 L235.2,302.8 L228,300 L235.2,297.2 Z" fill="#FFFFFF" opacity=".85"/><path d="M660,321 L662.52,327.48 L669,330 L662.52,332.52 L660,339 L657.48,332.52 L651,330 L657.48,327.48 Z" fill="#FFFFFF" opacity=".7"/>

  <g opacity=".9">
    <rect x="42" y="386" width="26" height="5" rx="2.5" fill="#FFFFFF" opacity=".85"/>
    <text x="42" y="416" font-family="Segoe UI, Arial, sans-serif" font-size="14" font-weight="700"
      letter-spacing="4.5" fill="#FFFFFF" fill-opacity=".7">ĐẠI HỌC DUY TÂN</text>
  </g>
</svg>
