<svg xmlns="http://www.w3.org/2000/svg" viewBox="0 0 800 450" preserveAspectRatio="xMidYMid slice">
  <defs>
    <linearGradient id="bg" x1="0" y1="0" x2="1" y2="1">
      <stop offset="0" stop-color="#831843"/><stop offset=".55" stop-color="#DB2777"/><stop offset="1" stop-color="#F9A8D4"/>
    </linearGradient>
    <radialGradient id="sheen" cx=".2" cy=".05" r=".9">
      <stop offset="0" stop-color="#FFFFFF" stop-opacity=".22"/><stop offset=".5" stop-color="#FFFFFF" stop-opacity="0"/>
    </radialGradient>
    <pattern id="dots" width="26" height="26" patternUnits="userSpaceOnUse">
      <circle cx="2" cy="2" r="1.3" fill="#FFFFFF" opacity=".13"/>
    </pattern>
    <filter id="soft" x="-40%" y="-40%" width="180%" height="180%">
      <feGaussianBlur stdDeviation="12"/>
    </filter>
  </defs>
  <rect width="800" height="450" fill="url(#bg)"/>
  <rect width="800" height="450" fill="url(#sheen)"/>
  <rect width="800" height="450" fill="url(#dots)"/>
  <circle cx="735" cy="55" r="120" fill="#FFFFFF" opacity=".07"/>
  <circle cx="60" cy="400" r="95" fill="#FFFFFF" opacity=".07"/>

  <g transform="translate(415,225) rotate(-4)">
    <rect x="-92" y="-78" width="184" height="184" rx="22" fill="#0B0A14" opacity=".28" filter="url(#soft)"/>
    <rect x="-92" y="-92" width="184" height="184" rx="22" fill="#FFFFFF"/>
    <path d="M-92,-92 h184 a22,22 0 0 1 0,0 v52 h-184 v-52 a22,22 0 0 1 0,0 z" fill="#DB2777"/>
    <rect x="-92" y="-92" width="184" height="52" rx="22" fill="#DB2777"/>
    <rect x="-92" y="-62" width="184" height="22" fill="#DB2777"/>
    <rect x="-52" y="-108" width="14" height="34" rx="7" fill="#831843"/>
    <rect x="38" y="-108" width="14" height="34" rx="7" fill="#831843"/>
    <text x="0" y="34" text-anchor="middle" font-family="Segoe UI, Arial" font-size="72" font-weight="800" fill="#831843">27</text>
    <text x="0" y="-52" text-anchor="middle" font-family="Segoe UI, Arial" font-size="20" font-weight="700" fill="#FFFFFF" letter-spacing="2">THÁNG 7</text>
  </g>
  <g transform="translate(580,140) rotate(12)">
    <path d="M0,-26 l7,14 16,2 -12,11 3,16 -14,-8 -14,8 3,-16 -12,-11 16,-2 z" fill="#FBBF24"/>
  </g>
  <g opacity=".95">
    <rect x="245" y="135" width="15" height="8" rx="4" fill="#FBBF24" transform="rotate(24 252 139)"/>
    <rect x="610" y="255" width="15" height="8" rx="4" fill="#FFFFFF" transform="rotate(-18 617 259)"/>
    <rect x="235" y="300" width="15" height="8" rx="4" fill="#FFFFFF" transform="rotate(45 242 304)"/>
    <circle cx="270" cy="215" r="6" fill="#FBBF24"/>
    <circle cx="640" cy="330" r="6" fill="#F9A8D4"/>
  </g>
  <path d="M645,175 L647.8,182.2 L655,185 L647.8,187.8 L645,195 L642.2,187.8 L635,185 L642.2,182.2 Z" fill="#FFFFFF" opacity=".85"/>

  <g opacity=".9">
    <rect x="42" y="386" width="26" height="5" rx="2.5" fill="#FFFFFF" opacity=".85"/>
    <text x="42" y="416" font-family="Segoe UI, Arial, sans-serif" font-size="14" font-weight="700"
      letter-spacing="4.5" fill="#FFFFFF" fill-opacity=".7">ĐẠI HỌC DUY TÂN</text>
  </g>
</svg>
