<svg xmlns="http://www.w3.org/2000/svg" viewBox="0 0 800 450" preserveAspectRatio="xMidYMid slice">
  <defs>
    <linearGradient id="bg" x1="0" y1="0" x2="1" y2="1">
      <stop offset="0" stop-color="#7F1D2B"/><stop offset=".55" stop-color="#C8393F"/><stop offset="1" stop-color="#F0885A"/>
    </linearGradient>
    <radialGradient id="sheen" cx=".2" cy=".05" r=".9">
      <stop offset="0" stop-color="#FFFFFF" stop-opacity=".22"/><stop offset=".5" stop-color="#FFFFFF" stop-opacity="0"/>
    </radialGradient>
    <pattern id="dots" width="26" height="26" patternUnits="userSpaceOnUse">
      <circle cx="2" cy="2" r="1.3" fill="#FFFFFF" opacity=".13"/>
    </pattern>
    <filter id="soft" x="-40%" y="-40%" width="180%" height="180%">
      <feGaussianBlur stdDeviation="12"/>
    </filter>
  </defs>
  <rect width="800" height="450" fill="url(#bg)"/>
  <rect width="800" height="450" fill="url(#sheen)"/>
  <rect width="800" height="450" fill="url(#dots)"/>
  <circle cx="735" cy="55" r="120" fill="#FFFFFF" opacity=".07"/>
  <circle cx="60" cy="400" r="95" fill="#FFFFFF" opacity=".07"/>

  <g transform="translate(420,208)">
    <rect x="-110" y="-26" width="220" height="100" rx="20" fill="#0B0A14" opacity=".28" filter="url(#soft)"/>
    <path d="M0,-64 L118,-18 L0,28 L-118,-18 Z" fill="#FFFFFF"/>
    <path d="M-64,4 V46 c0,20 128,20 128,0 V4" fill="none" stroke="#FFFFFF" stroke-width="13" stroke-linecap="round"/>
    <path d="M118,-18 V38" stroke="#FBBF24" stroke-width="7" stroke-linecap="round"/>
    <circle cx="118" cy="46" r="9" fill="#FBBF24"/>
  </g>
  <g transform="translate(300,318) rotate(-8)">
    <rect x="-58" y="-2" width="116" height="32" rx="16" fill="#0B0A14" opacity=".28" filter="url(#soft)"/>
    <rect x="-58" y="-16" width="116" height="32" rx="16" fill="#FFFFFF"/>
    <rect x="-12" y="-22" width="24" height="44" rx="8" fill="#F0705A"/>
  </g>
  <g opacity=".95">
    <rect x="240" y="128" width="14" height="7" rx="3" fill="#FBBF24" transform="rotate(24 247 131)"/>
    <rect x="580" y="120" width="14" height="7" rx="3" fill="#FFFFFF" transform="rotate(-18 587 123)"/>
    <rect x="620" y="300" width="14" height="7" rx="3" fill="#FBBF24" transform="rotate(40 627 303)"/>
    <rect x="205" y="255" width="14" height="7" rx="3" fill="#FFFFFF" transform="rotate(-30 212 258)"/>
  </g>
  <path d="M640,169 L643.08,176.92 L651,180 L643.08,183.08 L640,191 L636.92,183.08 L629,180 L636.92,176.92 Z" fill="#FFFFFF" opacity=".85"/><path d="M232,181 L234.52,187.48 L241,190 L234.52,192.52 L232,199 L229.48,192.52 L223,190 L229.48,187.48 Z" fill="#FFFFFF" opacity=".75"/>

  <g opacity=".9">
    <rect x="42" y="386" width="26" height="5" rx="2.5" fill="#FFFFFF" opacity=".85"/>
    <text x="42" y="416" font-family="Segoe UI, Arial, sans-serif" font-size="14" font-weight="700"
      letter-spacing="4.5" fill="#FFFFFF" fill-opacity=".7">ĐẠI HỌC DUY TÂN</text>
  </g>
</svg>
