<svg xmlns="http://www.w3.org/2000/svg" viewBox="0 0 800 450" preserveAspectRatio="xMidYMid slice">
  <defs>
    <linearGradient id="bg" x1="0" y1="0" x2="1" y2="1">
      <stop offset="0" stop-color="#054E3B"/><stop offset=".55" stop-color="#0E9F6E"/><stop offset="1" stop-color="#5BE0AE"/>
    </linearGradient>
    <radialGradient id="sheen" cx=".2" cy=".05" r=".9">
      <stop offset="0" stop-color="#FFFFFF" stop-opacity=".22"/><stop offset=".5" stop-color="#FFFFFF" stop-opacity="0"/>
    </radialGradient>
    <pattern id="dots" width="26" height="26" patternUnits="userSpaceOnUse">
      <circle cx="2" cy="2" r="1.3" fill="#FFFFFF" opacity=".13"/>
    </pattern>
    <filter id="soft" x="-40%" y="-40%" width="180%" height="180%">
      <feGaussianBlur stdDeviation="12"/>
    </filter>
  </defs>
  <rect width="800" height="450" fill="url(#bg)"/>
  <rect width="800" height="450" fill="url(#sheen)"/>
  <rect width="800" height="450" fill="url(#dots)"/>
  <circle cx="735" cy="55" r="120" fill="#FFFFFF" opacity=".07"/>
  <circle cx="60" cy="400" r="95" fill="#FFFFFF" opacity=".07"/>

  <path d="M120,262 L280,262 L318,262 L338,215 L362,300 L382,240 L398,262 L680,262"
    stroke="#FFFFFF" stroke-width="7" fill="none" stroke-linecap="round" stroke-linejoin="round" opacity=".65"/>
  <g transform="translate(430,218) rotate(-5)">
    <rect x="-80" y="-66" width="160" height="160" rx="34" fill="#0B0A14" opacity=".28" filter="url(#soft)"/>
    <rect x="-80" y="-80" width="160" height="160" rx="34" fill="#FFFFFF"/>
    <path d="M-17,-52 h34 v35 h35 v34 h-35 v35 h-34 v-35 h-35 v-34 h35 z" fill="#0E9F6E"/>
  </g>
  <g transform="translate(580,310) rotate(32)">
    <rect x="-45" y="-6" width="90" height="40" rx="20" fill="#0B0A14" opacity=".28" filter="url(#soft)"/>
    <rect x="-45" y="-20" width="90" height="40" rx="20" fill="#FFFFFF"/>
    <path d="M0,-20 a20,20 0 0 1 0,40 h-45 a20,20 0 0 1 0,-40 z" fill="#FBBF24" transform="translate(-22,0) scale(0.5,1) translate(22,0)"/>
    <rect x="-2" y="-20" width="4" height="40" fill="#0E9F6E" opacity=".25"/>
  </g>
  <g transform="translate(268,140) rotate(-18)">
    <rect x="-38" y="-17" width="76" height="34" rx="17" fill="#FFFFFF" opacity=".92"/>
    <rect x="-38" y="-17" width="38" height="34" rx="17" fill="#F0705A"/>
  </g>
  <path d="M615,140 L617.8,147.2 L625,150 L617.8,152.8 L615,160 L612.2,152.8 L605,150 L612.2,147.2 Z" fill="#FFFFFF" opacity=".85"/><path d="M240,321 L242.52,327.48 L249,330 L242.52,332.52 L240,339 L237.48,332.52 L231,330 L237.48,327.48 Z" fill="#FFFFFF" opacity=".7"/>

  <g opacity=".9">
    <rect x="42" y="386" width="26" height="5" rx="2.5" fill="#FFFFFF" opacity=".85"/>
    <text x="42" y="416" font-family="Segoe UI, Arial, sans-serif" font-size="14" font-weight="700"
      letter-spacing="4.5" fill="#FFFFFF" fill-opacity=".7">ĐẠI HỌC DUY TÂN</text>
  </g>
</svg>
